<mxfile host="65bd71144e">
    <diagram id="i9bOvjuSWKOL3FNnwIuz" name="Page-1">
        <mxGraphModel dx="1667" dy="1763" grid="1" gridSize="10" guides="1" tooltips="1" connect="1" arrows="1" fold="1" page="1" pageScale="1" pageWidth="827" pageHeight="1169" math="0" shadow="0">
            <root>
                <mxCell id="0"/>
                <mxCell id="1" parent="0"/>
                <mxCell id="2" value="" style="edgeStyle=none;html=1;startArrow=none;" edge="1" parent="1" source="5">
                    <mxGeometry relative="1" as="geometry">
                        <mxPoint x="322.5" y="67.5" as="targetPoint"/>
                    </mxGeometry>
                </mxCell>
                <mxCell id="3" value="" style="rounded=1;whiteSpace=wrap;html=1;" vertex="1" parent="1">
                    <mxGeometry x="245" y="-10" width="130" height="100" as="geometry"/>
                </mxCell>
                <mxCell id="5" value="" style="whiteSpace=wrap;html=1;aspect=fixed;" vertex="1" parent="1">
                    <mxGeometry x="210" y="-40" width="370" height="370" as="geometry"/>
                </mxCell>
                <mxCell id="6" value="" style="rounded=1;whiteSpace=wrap;html=1;" vertex="1" parent="1">
                    <mxGeometry x="232.5" y="-30" width="317.5" height="160" as="geometry"/>
                </mxCell>
                <mxCell id="7" value="Workshop name" style="rounded=1;whiteSpace=wrap;html=1;" vertex="1" parent="1">
                    <mxGeometry x="320" y="-20" width="135" height="20" as="geometry"/>
                </mxCell>
                <mxCell id="8" value="" style="ellipse;whiteSpace=wrap;html=1;" vertex="1" parent="1">
                    <mxGeometry x="340" y="70" width="17.5" height="20" as="geometry"/>
                </mxCell>
                <mxCell id="9" value="" style="ellipse;whiteSpace=wrap;html=1;" vertex="1" parent="1">
                    <mxGeometry x="375" y="70" width="17.5" height="20" as="geometry"/>
                </mxCell>
                <mxCell id="10" value="submit&amp;nbsp;" style="rounded=1;whiteSpace=wrap;html=1;" vertex="1" parent="1">
                    <mxGeometry x="340.62" y="100" width="101.25" height="20" as="geometry"/>
                </mxCell>
                <mxCell id="11" value="" style="ellipse;whiteSpace=wrap;html=1;" vertex="1" parent="1">
                    <mxGeometry x="410" y="70" width="17.5" height="20" as="geometry"/>
                </mxCell>
                <mxCell id="12" value="16/1/22 :)&amp;nbsp;" style="rounded=0;whiteSpace=wrap;html=1;" vertex="1" parent="1">
                    <mxGeometry x="219.38" y="240" width="60" height="20" as="geometry"/>
                </mxCell>
                <mxCell id="13" value="User, your journey at a glance" style="rounded=0;whiteSpace=wrap;html=1;" vertex="1" parent="1">
                    <mxGeometry x="219.38" y="150" width="167.5" height="20" as="geometry"/>
                </mxCell>
                <mxCell id="14" value="" style="rounded=0;whiteSpace=wrap;html=1;" vertex="1" parent="1">
                    <mxGeometry x="219.38" y="200" width="200" height="20" as="geometry"/>
                </mxCell>
                <mxCell id="15" value="17/1/22 :)&amp;nbsp;" style="rounded=0;whiteSpace=wrap;html=1;" vertex="1" parent="1">
                    <mxGeometry x="219.38" y="180" width="60" height="20" as="geometry"/>
                </mxCell>
                <mxCell id="16" value="" style="rounded=0;whiteSpace=wrap;html=1;" vertex="1" parent="1">
                    <mxGeometry x="219.38" y="260" width="200" height="20" as="geometry"/>
                </mxCell>
                <mxCell id="17" value="&lt;br&gt;How far did you get?" style="rounded=1;whiteSpace=wrap;html=1;" vertex="1" parent="1">
                    <mxGeometry x="322.19" y="30" width="138.12" height="40" as="geometry"/>
                </mxCell>
                <mxCell id="18" value="Date" style="rounded=1;whiteSpace=wrap;html=1;" vertex="1" parent="1">
                    <mxGeometry x="321.88" y="10" width="135" height="20" as="geometry"/>
                </mxCell>
                <mxCell id="19" value="App" style="whiteSpace=wrap;html=1;aspect=fixed;" vertex="1" parent="1">
                    <mxGeometry x="70" y="380" width="150" height="150" as="geometry"/>
                </mxCell>
                <mxCell id="20" value="User input" style="rounded=1;whiteSpace=wrap;html=1;" vertex="1" parent="1">
                    <mxGeometry x="231.25" y="390" width="157.5" height="30" as="geometry"/>
                </mxCell>
                <mxCell id="21" value="User input" style="whiteSpace=wrap;html=1;aspect=fixed;" vertex="1" parent="1">
                    <mxGeometry x="70" y="560" width="150" height="150" as="geometry"/>
                </mxCell>
                <mxCell id="22" value="states" style="ellipse;whiteSpace=wrap;html=1;" vertex="1" parent="1">
                    <mxGeometry y="10" width="70" height="50" as="geometry"/>
                </mxCell>
                <mxCell id="23" value="Components" style="whiteSpace=wrap;html=1;aspect=fixed;" vertex="1" parent="1">
                    <mxGeometry y="70" width="80" height="80" as="geometry"/>
                </mxCell>
                <mxCell id="25" value="JSX" style="shape=hexagon;perimeter=hexagonPerimeter2;whiteSpace=wrap;html=1;fixedSize=1;" vertex="1" parent="1">
                    <mxGeometry x="-10" y="160" width="110" height="80" as="geometry"/>
                </mxCell>
                <mxCell id="26" value="&amp;lt;input = workshop name&amp;gt;" style="shape=hexagon;perimeter=hexagonPerimeter2;whiteSpace=wrap;html=1;fixedSize=1;" vertex="1" parent="1">
                    <mxGeometry x="239.38" y="565" width="160" height="20" as="geometry"/>
                </mxCell>
                <mxCell id="29" value="&amp;lt;input = date&amp;gt;" style="shape=hexagon;perimeter=hexagonPerimeter2;whiteSpace=wrap;html=1;fixedSize=1;" vertex="1" parent="1">
                    <mxGeometry x="239.38" y="590" width="160" height="20" as="geometry"/>
                </mxCell>
                <mxCell id="30" value="&amp;lt;input = progress&amp;gt;" style="shape=hexagon;perimeter=hexagonPerimeter2;whiteSpace=wrap;html=1;fixedSize=1;" vertex="1" parent="1">
                    <mxGeometry x="245" y="620" width="160" height="20" as="geometry"/>
                </mxCell>
                <mxCell id="31" value="&amp;lt;button: poor&amp;gt;" style="shape=hexagon;perimeter=hexagonPerimeter2;whiteSpace=wrap;html=1;fixedSize=1;" vertex="1" parent="1">
                    <mxGeometry x="245" y="650" width="160" height="20" as="geometry"/>
                </mxCell>
                <mxCell id="32" value="&amp;lt;button: fair&amp;gt;" style="shape=hexagon;perimeter=hexagonPerimeter2;whiteSpace=wrap;html=1;fixedSize=1;" vertex="1" parent="1">
                    <mxGeometry x="405" y="650" width="160" height="20" as="geometry"/>
                </mxCell>
                <mxCell id="33" value="&amp;lt;button: good&amp;gt;" style="shape=hexagon;perimeter=hexagonPerimeter2;whiteSpace=wrap;html=1;fixedSize=1;" vertex="1" parent="1">
                    <mxGeometry x="565" y="650" width="160" height="20" as="geometry"/>
                </mxCell>
                <mxCell id="34" value="&amp;lt;button: submit&amp;gt;" style="shape=hexagon;perimeter=hexagonPerimeter2;whiteSpace=wrap;html=1;fixedSize=1;" vertex="1" parent="1">
                    <mxGeometry x="250" y="680" width="160" height="20" as="geometry"/>
                </mxCell>
                <mxCell id="36" value="WorkshopList" style="whiteSpace=wrap;html=1;aspect=fixed;" vertex="1" parent="1">
                    <mxGeometry x="70" y="760" width="160" height="160" as="geometry"/>
                </mxCell>
                <mxCell id="37" value="Workshop" style="whiteSpace=wrap;html=1;aspect=fixed;" vertex="1" parent="1">
                    <mxGeometry x="65" y="960" width="160" height="160" as="geometry"/>
                </mxCell>
                <mxCell id="38" value="&amp;lt;h3 = workshop name&amp;gt;" style="shape=hexagon;perimeter=hexagonPerimeter2;whiteSpace=wrap;html=1;fixedSize=1;" vertex="1" parent="1">
                    <mxGeometry x="230" y="1020" width="160" height="20" as="geometry"/>
                </mxCell>
                <mxCell id="39" value="&amp;lt;h2 = date&amp;gt;" style="shape=hexagon;perimeter=hexagonPerimeter2;whiteSpace=wrap;html=1;fixedSize=1;" vertex="1" parent="1">
                    <mxGeometry x="232.5" y="990" width="160" height="20" as="geometry"/>
                </mxCell>
                <mxCell id="40" value="&amp;lt;p = progress&amp;gt;" style="shape=hexagon;perimeter=hexagonPerimeter2;whiteSpace=wrap;html=1;fixedSize=1;" vertex="1" parent="1">
                    <mxGeometry x="230" y="1050" width="160" height="20" as="geometry"/>
                </mxCell>
                <mxCell id="41" value="&amp;lt;p: poor&amp;gt;" style="shape=hexagon;perimeter=hexagonPerimeter2;whiteSpace=wrap;html=1;fixedSize=1;" vertex="1" parent="1">
                    <mxGeometry x="230" y="1080" width="160" height="20" as="geometry"/>
                </mxCell>
                <mxCell id="42" value="Workshop" style="rounded=1;whiteSpace=wrap;html=1;" vertex="1" parent="1">
                    <mxGeometry x="235" y="780" width="157.5" height="30" as="geometry"/>
                </mxCell>
                <mxCell id="43" value="WorkshopList" style="rounded=1;whiteSpace=wrap;html=1;" vertex="1" parent="1">
                    <mxGeometry x="233.75" y="440" width="157.5" height="30" as="geometry"/>
                </mxCell>
                <mxCell id="48" value="API" style="swimlane;fontStyle=0;childLayout=stackLayout;horizontal=1;startSize=30;horizontalStack=0;resizeParent=1;resizeParentMax=0;resizeLast=0;collapsible=1;marginBottom=0;" vertex="1" parent="1">
                    <mxGeometry x="440" y="410" width="140" height="60" as="geometry"/>
                </mxCell>
                <mxCell id="49" value="POST" style="text;strokeColor=none;fillColor=none;align=left;verticalAlign=middle;spacingLeft=4;spacingRight=4;overflow=hidden;points=[[0,0.5],[1,0.5]];portConstraint=eastwest;rotatable=0;" vertex="1" parent="48">
                    <mxGeometry y="30" width="140" height="30" as="geometry"/>
                </mxCell>
                <mxCell id="44" value="API" style="swimlane;fontStyle=0;childLayout=stackLayout;horizontal=1;startSize=30;horizontalStack=0;resizeParent=1;resizeParentMax=0;resizeLast=0;collapsible=1;marginBottom=0;shadow=1;" vertex="1" parent="1">
                    <mxGeometry x="415" y="780" width="140" height="90" as="geometry">
                        <mxRectangle x="415" y="780" width="50" height="30" as="alternateBounds"/>
                    </mxGeometry>
                </mxCell>
                <mxCell id="45" value="GET *" style="text;strokeColor=none;fillColor=none;align=left;verticalAlign=middle;spacingLeft=4;spacingRight=4;overflow=hidden;points=[[0,0.5],[1,0.5]];portConstraint=eastwest;rotatable=0;shadow=1;" vertex="1" parent="44">
                    <mxGeometry y="30" width="140" height="30" as="geometry"/>
                </mxCell>
                <mxCell id="51" value="UPDATE" style="text;strokeColor=none;fillColor=none;align=left;verticalAlign=middle;spacingLeft=4;spacingRight=4;overflow=hidden;points=[[0,0.5],[1,0.5]];portConstraint=eastwest;rotatable=0;shadow=1;" vertex="1" parent="44">
                    <mxGeometry y="60" width="140" height="30" as="geometry"/>
                </mxCell>
            </root>
        </mxGraphModel>
    </diagram>
</mxfile>